<svg id="Capa_1" enable-background="new 0 0 512 512" height="512" viewBox="0 0 512 512" width="512" xmlns="http://www.w3.org/2000/svg"><g><g><path d="m411.271 219.141h-36.396c-8.215 0-22.862-7.753-31.222-13v-43.426c0-28.067-9.3-55.642-26.187-77.646-2.523-3.286-7.229-3.906-10.517-1.383-3.286 2.522-3.905 7.23-1.384 10.516 14.888 19.398 23.087 43.73 23.087 68.513v29.582l-27.396-26.948c-.003-.003-.007-.006-.011-.009l-43.173-42.806c-20.15-19.978-46.467-30.668-73.919-29.858l-13.379-13.264v-24.16c0-9.237 7.515-16.752 16.752-16.752 36.461 0 70.437 12.27 98.256 35.483 3.18 2.655 7.909 2.227 10.563-.953 2.653-3.18 2.227-7.91-.954-10.563-30.111-25.129-68.418-38.967-107.864-38.967-17.508 0-31.752 14.244-31.752 31.752v9.287l-3.527-3.497c-14.78-14.655-39.833-4.042-39.833 16.6v48.811l-83.267 83.25c-.004.004-.008.009-.012.014-19.346 19.352-29.136 44.196-29.136 70.171 0 25.573 9.649 51.164 29.117 70.632 19.412 19.412 44.911 29.118 70.409 29.118s50.997-9.706 70.409-29.118l17.598-17.598 22.561 22.561c2.93 2.929 7.678 2.929 10.607 0s2.929-7.678 0-10.606l-135.174-135.175c-6.468-6.465-14.765-10.436-23.723-11.427l63.413-63.413c1.407-1.406 2.197-3.314 2.197-5.303v-51.917c0-7.439 8.95-11.224 14.272-5.947l34.246 33.954c1.524 1.511 3.601 2.292 5.768 2.158 24.13-1.573 47.8 7.524 65.812 25.38l26.185 25.962c-11.557 1.119-20.094 11.068-19.479 22.795l.188 3.586-3.587.188c-12.102.634-20.88 13.53-20.643 24.638.409 19.162 13.315 32.831 30.142 41.562-14.34 7.403-23.175 20.217-25.722 34.33-2.086 11.558 5.355 22.541 16.939 25.003l3.514.747-.747 3.512c-2.462 11.584 4.545 22.849 15.95 25.645 22.826 5.596 41.56-5.345 55.803-24.058 5.456 22.939 17.861 40.464 41.145 44.665 11.545 2.084 22.538-5.348 25.001-16.94l.747-3.513 3.513.747c11.589 2.463 22.847-4.544 25.646-15.951 3.679-15.003.556-28.897-9.283-41.489 21.657-1.185 37.974-10.974 46.104-28.229 1.002-2.128 1.613-4.333 1.891-6.542 21.948 15.5 35.977 40.804 36.179 68.24.149 31.984-17.272 60.181-43.934 74.819-2.378 1.306-3.866 3.793-3.891 6.506-.383 42.406-17.469 74.092-32.49 74.092-12.999 0-28.938-24.202-32.02-63.302-.308-3.901-3.563-6.911-7.477-6.911h-10.502c-3.962 0-7.206 3.074-7.481 6.966-3.055 37.836-19.013 63.246-32.011 63.246-15.082 0-32.183-31.8-32.492-74.358-.022-3.104-1.955-5.873-4.859-6.965-17.297-6.506-33.383-15.716-47.812-27.374-3.225-2.604-7.944-2.102-10.548 1.121-2.603 3.222-2.102 7.944 1.12 10.547 14.351 11.594 30.211 20.96 47.211 27.887.757 20.55 5.152 40.051 12.537 55.378 8.936 18.549 21.31 28.765 34.843 28.765 22.856 0 38.68-28.281 44.732-60.402 6.017 32.122 21.837 60.402 44.758 60.402 13.504 0 25.859-10.179 34.792-28.661 7.471-15.459 11.899-35.198 12.605-55.983 29.206-17.741 47.92-49.706 47.92-85.893.001-53.565-44.98-98.824-100.728-98.824zm-336.35 1.168 102.006 102.006-17.599 17.599c-32.975 32.975-86.629 32.975-119.604 0-32.88-32.881-32.966-86.317-.274-119.316.107-.096.217-.187.32-.29h.001l.033-.033c9.726-9.689 25.42-9.66 35.117.034zm262.228-.615c7.196 4.428 19.318 11.033 30.086 13.482-2.727 13.392-19.151 18.065-28.576 8.568-5.971-6.017-6.46-15.448-1.51-22.05zm108.207 30.298c-10.291 21.844-36.466 20.968-51.147 18.501-7.718-1.289-12.001 8.689-5.75 13.391 16.501 12.411 22.742 25.707 19.079 40.647-.841 3.429-4.406 5.605-7.958 4.852l-10.849-2.306c-4.041-.861-8.033 1.724-8.896 5.776l-2.307 10.849c-.754 3.547-4.197 5.921-7.666 5.297-9.006-1.625-16.708-6.743-21.688-14.411-5.992-9.228-10.002-25.009-9.752-38.377.151-8.184-11.181-10.692-14.406-3.062-6.172 14.592-24.028 41.848-50.192 35.436-3.428-.84-5.604-4.41-4.85-7.957 2.327-10.945 3.45-13.123 1.261-16.493-2.13-3.282-4.188-3.136-15.58-5.558-3.548-.754-5.924-4.194-5.297-7.668 3.146-17.436 17.023-25.497 34.043-29.393 7.591-1.738 7.795-12.539.267-14.556-10.778-2.887-21.375-8.192-27.653-13.846-7.525-6.775-10.666-12.882-10.842-21.081-.088-4.117 3.398-9.178 6.432-9.337l11.076-.581c4.137-.217 7.313-3.746 7.097-7.882l-.58-11.076c-.189-3.622 2.518-6.807 6.035-7.101 5.638-.471 11.284.515 16.394 2.858l33.867 33.311c-9.716 12.469-8.891 30.585 2.519 42.083 18.484 18.628 50.605 8.166 54.254-18.169h29.005c7.927 0 15.795 1.084 23.4 3.224l7.554 3.849c3.23 1.649 4.635 5.586 3.13 8.78z"/><path d="m41.86 265.035c-2.929 2.929-2.929 7.678 0 10.606 2.93 2.929 7.678 2.929 10.607 0 1.675-1.676 4.39-1.675 6.064 0l6.664 6.665c2.93 2.929 7.678 2.929 10.606 0 2.93-2.929 2.93-7.678.001-10.607l-6.664-6.665c-7.52-7.519-19.756-7.519-27.278.001z"/><path d="m118.364 219.45c0 4.142 3.357 7.5 7.5 7.5s7.5-3.358 7.5-7.5c0-3.532 2.873-6.406 6.405-6.406s6.406 2.874 6.406 6.406c0 4.142 3.357 7.5 7.5 7.5s7.5-3.358 7.5-7.5c0-11.803-9.603-21.406-21.406-21.406-11.802 0-21.405 9.603-21.405 21.406z"/></g></g></svg>