<?xml version="1.0" encoding="UTF-8"?>
<svg xmlns="http://www.w3.org/2000/svg" xmlns:xlink="http://www.w3.org/1999/xlink" width="1012.5pt" height="487.499991pt" viewBox="0 0 1012.5 487.499991" version="1.2">
<defs>
<clipPath id="clip1">
  <path d="M 393 157.761719 L 619 157.761719 L 619 329.375 L 393 329.375 Z M 393 157.761719 "/>
</clipPath>
</defs>
<g id="surface1">
<g clip-path="url(#clip1)" clip-rule="nonzero">
<path style=" stroke:none;fill-rule:nonzero;fill:rgb(0%,0%,0%);fill-opacity:1;" d="M 536.667969 157.761719 C 518.398438 157.761719 503.269531 172.738281 503.269531 191.046875 L 503.269531 208.988281 C 503.269531 215.460938 505.664062 221.558594 510.277344 226.183594 C 514.890625 230.808594 520.984375 233.210938 527.441406 233.210938 C 540.726562 233.210938 551.613281 222.300781 551.613281 208.988281 L 551.613281 177.734375 L 563.609375 177.550781 C 568.589844 177.550781 573.386719 179.398438 576.894531 182.914062 C 580.398438 186.425781 582.429688 191.234375 582.429688 196.226562 C 582.429688 199.371094 584.828125 201.773438 587.964844 201.773438 L 608.265625 201.773438 L 608.265625 206.214844 C 608.265625 214.90625 606.605469 220.820312 603.46875 223.964844 C 599.039062 228.402344 590.367188 228.035156 581.140625 227.847656 C 571.914062 227.664062 562.316406 227.292969 553.644531 231.363281 C 534.082031 240.609375 532.054688 281.476562 533.714844 314.023438 C 533.714844 315.132812 533.34375 316.246094 532.605469 316.984375 C 531.867188 317.726562 530.761719 318.277344 529.65625 318.277344 C 527.808594 318.277344 526.148438 316.984375 525.78125 315.136719 C 524.488281 309.773438 523.75 307.925781 523.378906 306.8125 C 514.335938 285.734375 493.855469 272.046875 470.976562 272.046875 L 469.867188 272.046875 C 447.535156 272.046875 427.609375 285.546875 419.304688 306.257812 C 419.121094 306.8125 418.566406 307.921875 416.90625 314.765625 C 416.351562 316.796875 414.507812 318.277344 412.292969 318.277344 C 410.261719 318.277344 409.15625 317.167969 408.601562 316.429688 C 408.046875 315.6875 407.308594 314.394531 407.679688 312.363281 L 412.847656 288.320312 L 413.953125 282.773438 C 416.722656 269.460938 419.304688 256.882812 427.238281 248.191406 C 429.269531 245.972656 429.085938 242.460938 426.871094 240.425781 C 424.65625 238.390625 421.148438 238.574219 419.117188 240.792969 C 409.152344 251.890625 406.203125 265.757812 403.25 280.738281 C 402.878906 282.585938 402.511719 284.25 402.144531 286.101562 L 396.976562 310.140625 C 396.050781 314.949219 397.160156 319.757812 400.113281 323.457031 C 403.066406 327.15625 407.679688 329.375 412.476562 329.375 C 419.671875 329.375 425.949219 324.566406 427.792969 317.539062 C 429.269531 311.804688 429.824219 310.511719 429.824219 310.324219 C 436.464844 293.683594 452.335938 283.140625 470.238281 283.140625 L 471.34375 283.140625 C 489.796875 283.140625 506.21875 294.050781 513.230469 311.066406 C 513.414062 311.621094 513.96875 313.097656 515.074219 317.722656 C 516.738281 324.5625 522.824219 329.375 529.839844 329.375 C 533.898438 329.375 537.957031 327.710938 540.726562 324.566406 C 543.496094 321.609375 545.15625 317.539062 544.789062 313.285156 C 542.390625 273.898438 547.738281 246.15625 558.074219 241.351562 C 564.164062 238.390625 572.464844 238.757812 580.402344 238.945312 C 591.472656 239.3125 602.914062 239.5 610.664062 231.917969 C 616.199219 226.554688 618.785156 218.050781 618.785156 206.214844 L 618.785156 196.226562 C 618.96875 193.082031 616.570312 190.679688 613.433594 190.679688 L 592.578125 190.679688 C 591.472656 184.761719 588.703125 179.398438 584.273438 175.144531 C 578.738281 169.597656 571.175781 166.453125 563.425781 166.453125 L 563.054688 166.453125 L 550.136719 166.636719 C 547.921875 161.460938 542.574219 157.761719 536.667969 157.761719 Z M 399.296875 177.628906 C 398.578125 177.628906 397.855469 177.777344 397.164062 178.101562 C 394.394531 179.210938 392.914062 182.542969 394.207031 185.316406 L 404.355469 209.726562 C 410.261719 223.96875 424.101562 233.210938 439.417969 233.210938 L 491.640625 233.210938 C 494.777344 233.210938 497.175781 230.808594 497.175781 227.664062 C 497.175781 224.519531 494.777344 222.117188 491.640625 222.117188 L 439.417969 222.117188 C 428.53125 222.117188 418.75 215.644531 414.503906 205.472656 L 404.355469 181.0625 C 403.527344 178.984375 401.449219 177.628906 399.296875 177.628906 Z M 563.609375 185.132812 C 563.246094 185.132812 562.886719 185.167969 562.527344 185.238281 C 562.171875 185.308594 561.828125 185.414062 561.492188 185.554688 C 561.15625 185.691406 560.835938 185.863281 560.535156 186.066406 C 560.230469 186.269531 559.953125 186.5 559.695312 186.757812 C 559.4375 187.015625 559.207031 187.292969 559.007812 187.597656 C 558.804688 187.898438 558.632812 188.21875 558.496094 188.554688 C 558.355469 188.890625 558.25 189.238281 558.179688 189.597656 C 558.109375 189.953125 558.074219 190.316406 558.074219 190.679688 C 558.074219 191.042969 558.109375 191.402344 558.179688 191.761719 C 558.25 192.117188 558.355469 192.464844 558.496094 192.800781 C 558.632812 193.136719 558.804688 193.457031 559.007812 193.761719 C 559.207031 194.0625 559.4375 194.34375 559.695312 194.601562 C 559.953125 194.859375 560.230469 195.089844 560.535156 195.292969 C 560.835938 195.496094 561.15625 195.664062 561.492188 195.804688 C 561.828125 195.945312 562.171875 196.050781 562.527344 196.121094 C 562.886719 196.191406 563.246094 196.226562 563.609375 196.226562 C 563.972656 196.226562 564.332031 196.191406 564.6875 196.121094 C 565.046875 196.050781 565.390625 195.945312 565.726562 195.804688 C 566.0625 195.664062 566.382812 195.496094 566.683594 195.292969 C 566.988281 195.089844 567.265625 194.859375 567.523438 194.601562 C 567.78125 194.34375 568.011719 194.0625 568.210938 193.761719 C 568.414062 193.457031 568.585938 193.136719 568.722656 192.800781 C 568.863281 192.464844 568.96875 192.117188 569.039062 191.761719 C 569.109375 191.402344 569.144531 191.042969 569.144531 190.679688 C 569.144531 190.316406 569.109375 189.953125 569.039062 189.597656 C 568.96875 189.238281 568.863281 188.890625 568.722656 188.554688 C 568.585938 188.21875 568.414062 187.898438 568.210938 187.597656 C 568.011719 187.292969 567.78125 187.015625 567.523438 186.757812 C 567.265625 186.5 566.988281 186.269531 566.683594 186.066406 C 566.382812 185.863281 566.0625 185.691406 565.726562 185.554688 C 565.390625 185.414062 565.046875 185.308594 564.6875 185.238281 C 564.332031 185.167969 563.972656 185.132812 563.609375 185.132812 Z M 565.269531 251.703125 C 562.132812 251.703125 559.734375 254.109375 559.734375 257.253906 C 559.734375 260.394531 562.132812 262.800781 565.269531 262.800781 C 572.652344 262.800781 579.476562 266.683594 583.167969 272.972656 L 585.015625 276.113281 C 586.304688 278.148438 585.382812 279.996094 585.015625 280.738281 C 584.644531 281.476562 583.355469 283.140625 580.957031 283.140625 C 579.480469 283.140625 578.003906 282.402344 577.082031 281.109375 C 575.421875 278.519531 571.914062 277.777344 569.328125 279.628906 C 566.746094 281.292969 566.007812 284.808594 567.855469 287.398438 C 570.808594 291.835938 575.605469 294.421875 580.957031 294.421875 C 586.675781 294.421875 591.84375 291.464844 594.613281 286.472656 C 597.378906 281.480469 597.378906 275.5625 594.425781 270.753906 L 592.578125 267.421875 C 586.859375 257.808594 576.34375 251.703125 565.269531 251.703125 Z M 456.082031 296.113281 C 455.699219 296.125 455.3125 296.179688 454.917969 296.269531 C 451.964844 297.011719 450.121094 299.972656 450.859375 303.117188 L 454.179688 316.246094 C 454.363281 316.984375 453.996094 317.351562 453.8125 317.722656 C 453.996094 317.90625 453.628906 318.277344 452.890625 318.277344 C 449.753906 318.277344 447.355469 320.683594 447.355469 323.824219 C 447.355469 326.96875 449.753906 329.375 452.890625 329.375 C 456.765625 329.375 460.457031 327.527344 462.855469 324.382812 C 465.253906 321.238281 466.175781 317.167969 465.066406 313.472656 L 461.75 300.34375 C 461.101562 297.753906 458.761719 296.011719 456.082031 296.113281 Z M 456.082031 296.113281 "/>
</g>
</g>
</svg>
